<svg width="512" height="512" viewBox="0 0 512 512" fill="none" xmlns="http://www.w3.org/2000/svg">
  <defs>
    <linearGradient id="bg" x1="0%" y1="0%" x2="100%" y2="100%">
      <stop offset="0%" style="stop-color:#0f1419;stop-opacity:1" />
      <stop offset="100%" style="stop-color:#1a2332;stop-opacity:1" />
    </linearGradient>
    <linearGradient id="accent" x1="0%" y1="0%" x2="100%" y2="100%">
      <stop offset="0%" style="stop-color:#4a9eff;stop-opacity:1" />
      <stop offset="100%" style="stop-color:#0066cc;stop-opacity:1" />
    </linearGradient>
  </defs>
  
  <!-- Background -->
  <rect width="512" height="512" rx="80" fill="url(#bg)"/>
  
  <!-- Main Icon - Shield/Path Symbol -->
  <g transform="translate(256,256)">
    <!-- Outer shield -->
    <path d="M-80,-120 L80,-120 L80,60 Q80,100 40,120 L0,140 L-40,120 Q-80,100 -80,60 Z" 
          fill="url(#accent)" opacity="0.2"/>
    
    <!-- Inner shield -->
    <path d="M-60,-90 L60,-90 L60,40 Q60,70 30,85 L0,100 L-30,85 Q-60,70 -60,40 Z" 
          fill="url(#accent)"/>
    
    <!-- Path/Arrow symbol -->
    <g fill="white">
      <!-- Arrow pointing up/forward -->
      <path d="M-20,-40 L0,-60 L20,-40 L10,-40 L10,20 L-10,20 L-10,-40 Z"/>
      
      <!-- Base line -->
      <rect x="-30" y="30" width="60" height="8" rx="4"/>
    </g>
    
    <!-- Subtle glow effect -->
    <circle cx="0" cy="-20" r="40" fill="url(#accent)" opacity="0.1"/>
  </g>
  
  <!-- Corner accent -->
  <circle cx="420" cy="92" r="20" fill="url(#accent)" opacity="0.3"/>
</svg>
